<svg width="443" height="379" viewBox="0 0 443 379" fill="none" xmlns="http://www.w3.org/2000/svg">
<path d="M0.999999 371L1 298C1 295.791 2.7911 294 5.00038 294L20.5 294.002L83.4085 294.002C84.7187 294.002 85.9458 293.36 86.6934 292.284L139 217L189.216 140.502L274.291 5.35271C275.576 3.31081 278.363 2.8631 280.224 4.3997L321.998 38.9063C323.534 40.1754 323.902 42.3818 322.86 44.0807L121.171 373.092C120.443 374.278 119.152 375.001 117.76 375.001L4.99994 375C2.79082 375 0.999999 373.209 0.999999 371Z" fill="url(#paint0_linear_126_1820)"/>
<path d="M190.47 141.325L190.478 141.313L190.485 141.301L275.561 6.15181C276.364 4.87561 278.106 4.59581 279.268 5.55618L321.042 40.0627C322.003 40.8559 322.232 42.2349 321.582 43.2968L119.892 372.308C119.437 373.05 118.63 373.501 117.76 373.501L4.99996 373.5C3.61927 373.5 2.5 372.381 2.5 371L2.5 298C2.5 296.62 3.61944 295.5 5.00024 295.5L20.4999 295.502L83.4085 295.502C85.21 295.502 86.8973 294.62 87.9253 293.14L140.232 217.856L140.243 217.84L140.254 217.823L190.47 141.325Z" stroke="url(#paint1_linear_126_1820)" stroke-opacity="0.71" stroke-width="3"/>
<path d="M146.813 367.673L336.776 57.1583C338.575 54.2177 342.877 54.309 344.549 57.3233L436.726 223.442C438.002 225.743 437.042 228.642 434.645 229.726L387.499 251.042C385.31 252.032 382.73 251.127 381.637 248.987L345.991 179.149C343.352 173.978 336.091 173.638 332.979 178.539L265.264 285.217C262.109 290.187 265.649 296.688 271.536 296.736L303.723 296.995C306.208 297.015 308.206 299.046 308.186 301.531L307.625 371.285C307.605 373.771 305.574 375.769 303.089 375.749L150.616 374.521C147.117 374.493 144.987 370.658 146.813 367.673Z" fill="url(#paint2_linear_126_1820)" stroke="url(#paint3_linear_126_1820)" stroke-width="3"/>
<defs>
<linearGradient id="paint0_linear_126_1820" x1="399" y1="-91.5" x2="-234" y2="636" gradientUnits="userSpaceOnUse">
<stop stop-color="#FAFAFA"/>
<stop offset="1" stop-color="#16161A"/>
</linearGradient>
<linearGradient id="paint1_linear_126_1820" x1="163.562" y1="1.00956" x2="161.933" y2="375.7" gradientUnits="userSpaceOnUse">
<stop stop-color="white"/>
<stop offset="1" stop-color="#16161A"/>
</linearGradient>
<linearGradient id="paint2_linear_126_1820" x1="305.509" y1="-26.6767" x2="289.995" y2="377.144" gradientUnits="userSpaceOnUse">
<stop/>
<stop offset="0.71875" stop-color="#5AB8F0"/>
</linearGradient>
<linearGradient id="paint3_linear_126_1820" x1="292.652" y1="47.2078" x2="289.995" y2="377.144" gradientUnits="userSpaceOnUse">
<stop stop-color="#0C0E0F"/>
<stop offset="1" stop-color="#0B3D5C" stop-opacity="0"/>
</linearGradient>
</defs>
</svg>
