<svg width="540" height="480" viewBox="0 0 540 480" fill="none" xmlns="http://www.w3.org/2000/svg">
<rect width="540" height="480" fill="url(#paint0_linear_927_2773)"/>
<path fill-rule="evenodd" clip-rule="evenodd" d="M214.209 191.066C214.209 190.941 214.318 190.376 214.811 189.522C215.275 188.719 216.012 187.781 217.074 186.91C219.172 185.19 222.605 183.674 227.869 184.061C248.632 185.585 260.385 199.891 260.385 210.752V274.731C260.385 275.763 260.147 276.265 259.905 276.517C259.674 276.757 259.186 277.034 258.068 277.034H245.718C244.6 277.034 244.112 276.757 243.881 276.517C243.639 276.265 243.401 275.763 243.401 274.731V215.673C243.401 211.85 241.521 208.024 238.742 205.18C235.957 202.33 232.11 200.304 227.979 200.304H216.209C215.105 200.304 214.209 199.408 214.209 198.304V191.066ZM227.979 203.304H216.209C215.105 203.304 214.209 204.199 214.209 205.304V274.731C214.209 276.314 213.916 277.791 212.845 278.81C211.791 279.813 210.33 280.034 208.892 280.034H196.317C195.037 280.034 193.65 279.786 192.581 278.854C191.47 277.886 191 276.447 191 274.731V215.002C191 212.056 192.686 208.418 195.19 205.568C197.713 202.694 201.346 200.304 205.522 200.304H209.209C210.314 200.304 211.209 199.408 211.209 198.304V191.066C211.209 190.184 211.602 189.079 212.213 188.022C212.854 186.913 213.824 185.696 215.172 184.591C217.895 182.357 222.097 180.629 228.088 181.069C249.989 182.676 263.385 197.922 263.385 210.752V274.731C263.385 276.16 263.062 277.56 262.069 278.594C261.065 279.64 259.645 280.034 258.068 280.034H245.718C244.141 280.034 242.721 279.64 241.717 278.594C240.724 277.56 240.401 276.16 240.401 274.731V215.673C240.401 212.803 238.958 209.694 236.596 207.277C234.24 204.865 231.126 203.304 227.979 203.304ZM205.522 203.304H209.209C210.314 203.304 211.209 204.199 211.209 205.304V274.731C211.209 276.057 210.941 276.481 210.777 276.636C210.597 276.808 210.149 277.034 208.892 277.034H196.317C195.352 277.034 194.83 276.835 194.552 276.593C194.316 276.386 194 275.923 194 274.731V215.002C194 213.027 195.232 210.065 197.444 207.547C199.635 205.051 202.514 203.304 205.522 203.304ZM325.467 289.061C325.467 289.186 325.358 289.751 324.865 290.605C324.401 291.408 323.664 292.346 322.602 293.217C320.504 294.937 317.071 296.453 311.807 296.066C291.044 294.542 279.291 280.236 279.291 269.375V205.396C279.291 204.364 279.529 203.863 279.771 203.61C280.002 203.37 280.49 203.093 281.608 203.093H293.958C295.076 203.093 295.565 203.37 295.795 203.61C296.037 203.863 296.276 204.364 296.276 205.396V264.454C296.276 268.277 298.155 272.103 300.934 274.947C303.719 277.797 307.567 279.824 311.698 279.824H323.467C324.571 279.824 325.467 280.719 325.467 281.824V289.061ZM311.698 276.824H323.467C324.571 276.824 325.467 275.928 325.467 274.824V205.396C325.467 203.813 325.76 202.336 326.831 201.317C327.886 200.314 329.346 200.093 330.784 200.093H343.359C344.639 200.093 346.026 200.341 347.095 201.273C348.206 202.241 348.676 203.68 348.676 205.396V265.125C348.676 268.071 346.99 271.709 344.487 274.559C341.964 277.433 338.331 279.824 334.154 279.824H330.467C329.362 279.824 328.467 280.719 328.467 281.824V289.061C328.467 289.943 328.074 291.048 327.463 292.106C326.822 293.214 325.852 294.431 324.504 295.537C321.781 297.77 317.579 299.498 311.588 299.058C289.687 297.451 276.291 282.205 276.291 269.375V205.396C276.291 203.967 276.614 202.567 277.607 201.533C278.611 200.487 280.032 200.093 281.608 200.093H293.958C295.535 200.093 296.955 200.487 297.959 201.533C298.952 202.567 299.276 203.967 299.276 205.396V264.454C299.276 267.324 300.718 270.433 303.08 272.85C305.436 275.262 308.55 276.824 311.698 276.824ZM334.154 276.824H330.467C329.362 276.824 328.467 275.928 328.467 274.824V205.396C328.467 204.07 328.735 203.646 328.899 203.491C329.08 203.319 329.528 203.093 330.784 203.093H343.359C344.324 203.093 344.846 203.292 345.124 203.535C345.361 203.741 345.676 204.204 345.676 205.396V265.125C345.676 267.1 344.444 270.062 342.233 272.58C340.041 275.076 337.163 276.824 334.154 276.824Z" fill="white"/>
<defs>
<linearGradient id="paint0_linear_927_2773" x1="456.3" y1="64.8" x2="149.151" y2="463.098" gradientUnits="userSpaceOnUse">
<stop stop-color="#A950C4"/>
<stop offset="1" stop-color="#82269E"/>
</linearGradient>
</defs>
</svg>
