<svg width="540" height="480" viewBox="0 0 540 480" fill="none" xmlns="http://www.w3.org/2000/svg">
<rect width="540" height="480" fill="url(#paint0_linear_927_2752)"/>
<g filter="url(#filter0_d_927_2752)">
<path fill-rule="evenodd" clip-rule="evenodd" d="M228.046 111.598C225.765 115.071 223.047 120.317 220.7 125.773C220.202 126.93 219.635 128.236 219.441 128.674C217.615 132.785 212.799 145.926 211.449 150.482C210.497 153.693 209.138 159.386 208.549 162.63C208.459 163.123 208.241 164.288 208.063 165.219C207.548 167.921 206.583 173.841 206.163 176.87C205.95 178.403 205.674 180.359 205.55 181.216C205.425 182.073 205.313 183.462 205.3 184.303C205.279 185.727 205.306 185.836 205.706 185.893C205.987 185.934 207.421 185.108 209.867 183.499C213.315 181.232 215.265 179.959 224.598 173.883C226.449 172.678 230.021 170.348 232.537 168.704C235.053 167.061 238.369 164.897 239.907 163.894C241.579 162.804 242.829 162.115 243.015 162.179C243.187 162.238 243.937 162.879 244.681 163.604C246.721 165.588 255.21 174.779 255.279 175.078C255.433 175.742 254.71 175.45 251.723 173.64C249.955 172.569 248.279 171.557 247.999 171.392C247.17 170.904 244.373 169.147 243.647 168.659C243.277 168.41 242.777 168.207 242.534 168.207C241.826 168.207 237.109 171.553 217.366 186.061C196.849 201.137 194.425 202.887 194.272 202.729C193.952 202.399 193.63 187.177 193.764 178.762C194.003 163.826 195.07 152.416 197.272 141.221C198.074 137.148 199.29 132.326 200.211 129.57C200.925 127.433 201.003 126.979 200.658 126.982C200.299 126.986 197.793 132.088 196.404 135.644C192.491 145.656 189.705 157.011 187.754 170.895C185.332 188.14 184.208 204.418 184.745 214.501C184.991 219.126 185.171 220.087 185.792 220.087C186.191 220.087 188.281 218.437 202.303 207.057C212.697 198.621 215.25 196.545 220.438 192.31C231.577 183.218 241.878 175.119 242.597 174.89C243.153 174.713 244.984 175.472 250.016 177.966C254.387 180.133 255.07 180.696 253.088 180.501C251.954 180.39 246.76 179.671 245.012 179.384C244.301 179.268 243.784 179.277 243.526 179.411C242.979 179.694 239.627 182.603 227.87 192.997C226.126 194.539 222.826 197.454 220.537 199.476C218.248 201.497 216.278 203.243 216.159 203.354C216.04 203.466 213.727 205.529 211.019 207.938C199.551 218.146 190.562 226.27 184.617 231.803L181.67 234.546C181.243 234.943 181 235.5 181 236.083V236.083C181 238.007 182.37 248.674 183.587 256.234C188.499 286.725 197.459 312.433 208.851 328.716C210.656 331.297 214.42 336.226 214.734 336.421C215.201 336.711 215.042 336.201 214.203 334.716C209.601 326.565 203.863 312.055 201.006 301.343C199.618 296.137 199.245 294.602 198.317 290.29C197.772 287.755 197.657 287.134 197.062 283.518C196.836 282.149 196.567 280.536 196.464 279.933C196.001 277.224 195.009 267.911 194.679 263.175C194.426 259.538 194.423 244.69 194.675 242.742C194.778 241.948 194.996 241.038 195.16 240.719C195.589 239.885 200.735 234.098 211.916 221.875C213.824 219.79 216.893 216.428 218.736 214.405C220.579 212.382 222.544 210.234 223.102 209.631C223.659 209.029 225.317 207.191 226.785 205.548C228.253 203.905 229.503 202.516 229.562 202.461C229.797 202.244 237.407 193.543 240.988 189.396C243.366 186.642 245.015 184.9 245.391 184.744C246.276 184.375 254.757 184.906 255.028 185.346C255.172 185.581 255.024 185.647 251.416 186.94C249.595 187.593 247.922 188.249 247.698 188.397C247.474 188.545 244.667 192.823 241.461 197.904C238.254 202.985 235.342 207.59 234.991 208.137C234.242 209.304 220.765 230.944 218.247 235.024C217.301 236.557 214.82 240.538 212.735 243.87C210.514 247.42 208.943 250.129 208.943 250.412C208.943 251.01 210.231 262.673 210.641 265.793C212.384 279.043 214.008 287.248 217.559 300.745C218.772 305.356 222.149 316.783 223.445 320.661C228.511 335.822 234.524 349.232 243.696 365.82C244.529 367.326 245.21 368.648 245.21 368.757C245.21 368.867 245.299 368.956 245.408 368.956C245.517 368.956 245.607 368.899 245.607 368.829C245.607 368.76 244.989 367.079 244.233 365.095C241.52 357.968 236.436 342.884 235.298 338.585C235.211 338.256 234.906 337.226 234.619 336.295C234.332 335.364 233.928 333.974 233.722 333.208C233.377 331.926 232.73 329.584 231.743 326.038C231.419 324.874 230.194 320.069 229.865 318.669C229.813 318.45 229.504 317.151 229.177 315.782C227.068 306.943 225.051 296.649 224.105 289.891C223.22 283.567 222.237 272.026 221.713 261.81C221.253 252.829 221.194 253.303 223.302 248.965C224.26 246.993 225.467 244.484 225.985 243.388C227.076 241.076 233.306 228.096 239.367 215.506C247.129 199.384 249.98 193.61 250.421 193.126C251.175 192.299 254.955 189.891 255.4 189.955C255.661 189.993 255.978 190.343 256.261 190.91C256.816 192.02 258.488 195.698 258.488 195.808C258.488 195.853 257.078 198.018 255.354 200.619C250.906 207.33 250.895 207.352 250.793 209.493C250.614 213.259 251.862 222.73 253.946 233.419C256.965 248.908 259.887 259.181 264.143 269.275L264.166 269.33C264.289 269.622 264.697 269.637 264.841 269.354V269.354C265.302 268.452 266.433 267.449 267.594 266.913C268.961 266.281 271.116 266.343 272.591 267.056C273.621 267.553 274.701 268.54 275.261 269.493C275.384 269.704 275.548 269.816 275.625 269.743C276.11 269.279 279.057 261.175 280.682 255.835C281.494 253.166 283.662 244.899 284.049 242.99C284.16 242.442 284.384 241.412 284.547 240.7C284.836 239.435 286.634 230.329 287.025 228.153C287.215 227.095 287.632 224.56 288.025 222.078C288.775 217.331 289.296 211.496 289.167 209.265C289.056 207.335 288.937 207.109 284.622 200.618C282.892 198.016 281.477 195.852 281.477 195.808C281.477 195.765 281.823 194.981 282.246 194.067C282.669 193.152 283.212 191.94 283.453 191.373C284.22 189.57 284.316 189.549 286.299 190.759C289.678 192.822 289.419 192.46 293.522 200.856C295.533 204.97 297.648 209.322 298.223 210.527C298.798 211.732 300.092 214.421 301.099 216.502C302.106 218.583 303.531 221.541 304.265 223.074C305 224.608 306.829 228.417 308.329 231.538C309.829 234.66 311.613 238.379 312.293 239.803C312.972 241.227 314.626 244.678 315.967 247.471C317.902 251.499 318.425 252.769 318.497 253.61C318.747 256.511 317.584 274.697 316.54 284.215C315.291 295.607 312.123 311.617 308.423 325.241C308.007 326.775 307.488 328.702 307.27 329.523C306.739 331.529 304.963 337.765 304.605 338.884C304.447 339.377 303.989 340.855 303.586 342.17C301.465 349.101 297.443 360.746 295.022 366.965C294.447 368.442 294.213 369.442 294.556 368.956C294.672 368.792 295.533 367.268 296.47 365.571C303.167 353.426 307.944 343.414 312.337 332.312C314.759 326.189 318.35 315.623 319.274 311.898C319.329 311.679 319.549 310.917 319.763 310.205C320.111 309.046 321.611 303.726 322.402 300.845C323.006 298.642 323.858 295.315 324.366 293.177C324.652 291.972 325.014 290.449 325.171 289.792C325.982 286.393 326.542 283.526 327.952 275.552C328.475 272.591 329.566 264.31 330.246 258.126C330.367 257.03 330.591 255.107 330.744 253.852C331.226 249.896 331.581 250.843 326.636 242.882C322.815 236.731 321.227 234.183 318.077 229.148C316.854 227.195 307.994 212.964 306.979 211.324C302.77 204.525 292.843 188.935 292.502 188.591C292.267 188.354 290.758 187.701 289.107 187.122C287.472 186.548 285.889 185.992 285.589 185.886C285.29 185.78 285.044 185.579 285.044 185.44C285.044 185.101 285.823 184.996 290.431 184.713C293.951 184.496 294.378 184.505 294.822 184.797C295.092 184.974 296.725 186.759 298.449 188.762C305.424 196.861 312.476 204.795 320.717 213.814C325.868 219.452 335.248 229.738 338.06 232.833C342.072 237.247 344.58 240.246 344.94 241.058C345.267 241.798 345.341 242.669 345.486 247.485C345.639 252.559 345.498 260.759 345.189 264.737C344.988 267.32 344.502 272.376 344.311 273.859C344.212 274.626 344.027 276.105 343.898 277.145C342.874 285.41 340.218 297.768 337.862 305.226C336.987 307.997 335.147 313.548 334.992 313.89C334.892 314.109 334.581 314.946 334.301 315.75C332.617 320.588 328.092 330.65 325.698 334.883C323.726 338.367 326.252 335.824 329.728 330.824C336.959 320.424 342.962 307.957 347.588 293.734C351.598 281.403 355.22 265.326 357.286 250.688C357.908 246.279 358.702 239.544 358.88 237.153L358.908 236.777C358.978 235.841 358.63 234.921 357.958 234.265L357.706 234.019C356.257 232.605 348.358 225.322 345.093 222.39C343.948 221.363 341.496 219.158 339.643 217.491C335.293 213.578 330.473 209.26 328.73 207.716C327.974 207.045 325.701 205.029 323.679 203.235C313.897 194.554 307.725 189.101 302.967 184.939C300.903 183.134 299.17 181.61 299.115 181.553C298.74 181.163 296.763 179.582 296.44 179.413C296.183 179.278 295.66 179.266 294.953 179.378C291.886 179.866 286.861 180.556 286.382 180.555C286.065 180.555 285.837 180.445 285.837 180.293C285.837 180.009 295.133 175.349 296.461 174.967C297.165 174.764 297.353 174.782 297.848 175.094C299.484 176.126 310.264 184.736 327.752 198.977C339.171 208.275 347.573 215.073 351.078 217.848C354.09 220.232 354.616 220.463 354.893 219.521C355.164 218.599 355.404 210.288 355.291 205.748C355.225 203.119 354.998 198.503 354.785 195.491C354.255 187.996 354.192 187.32 353.225 178.861C352.927 176.256 352.261 171.214 351.921 168.989C351.746 167.847 351.528 166.419 351.435 165.817C351.343 165.214 351.178 164.273 351.07 163.726C350.961 163.178 350.767 162.147 350.638 161.435C348.99 152.295 346.5 143.187 343.671 135.943C342.418 132.738 340.231 128.161 339.577 127.38L339.45 127.228C339.35 127.108 339.156 127.177 339.154 127.333V127.333C339.15 127.58 339.234 127.939 339.34 128.129C339.772 128.906 341.791 136.321 342.416 139.428C345.166 153.083 346.157 164.403 346.173 182.347C346.183 193.496 345.962 202.59 345.677 202.767C345.537 202.854 344.534 202.146 338.749 197.881C337.784 197.169 335.227 195.297 333.067 193.721C330.907 192.144 328.472 190.352 327.656 189.737C326.841 189.123 325.978 188.486 325.74 188.321C325.065 187.856 319.056 183.478 318.834 183.29C318.725 183.197 317.075 181.983 315.168 180.592C313.26 179.2 311.282 177.748 310.773 177.366C310.263 176.984 309.033 176.088 308.041 175.376C307.049 174.664 305.682 173.675 305.004 173.177C301.526 170.624 297.91 168.207 297.569 168.207C297.21 168.207 296.085 168.865 288.073 173.763C285.285 175.467 284.53 175.76 284.687 175.075C284.755 174.776 293.683 165.127 295.511 163.377C296.189 162.728 296.888 162.232 297.124 162.232C297.353 162.232 299.076 163.243 300.954 164.478C302.831 165.714 306.085 167.842 308.185 169.208C322.366 178.434 325.852 180.706 330.104 183.498C332.521 185.085 333.992 185.932 334.265 185.892C334.844 185.81 334.902 184.854 334.505 181.948C334.333 180.689 334.099 178.941 333.986 178.065C333.556 174.752 332.543 168.582 331.697 164.124C330.045 155.413 328.584 150.013 325.907 142.715C325.686 142.112 325.133 140.589 324.679 139.329C323.139 135.059 320.375 128.199 318.917 125.025C318.599 124.333 318.339 123.725 318.339 123.674C318.339 123.624 317.482 121.86 316.436 119.755C314.788 116.442 312.06 111.603 311.135 110.352C310.382 109.335 310.672 110.536 311.962 113.781C317.488 127.683 321.177 141.92 323.08 156.684C323.485 159.818 323.645 161.157 324.187 165.916C324.78 171.128 324.856 171.729 324.986 172.253C325.079 172.625 325.042 172.787 324.865 172.787C324.633 172.787 322.206 171.257 311.734 164.509C309.79 163.257 308.118 162.232 308.018 162.232C307.917 162.232 307.835 162.142 307.835 162.033C307.835 161.923 307.752 161.834 307.651 161.834C307.551 161.834 306.948 161.487 306.314 161.063C305.679 160.639 304.491 159.861 303.673 159.334C302.856 158.807 301.816 158.123 301.362 157.814C300.908 157.506 300.5 157.253 300.456 157.253C300.412 157.253 299.63 156.76 298.719 156.158C297.808 155.555 296.896 155.062 296.693 155.062C296.322 155.062 290.152 161.272 285.164 166.663C282.037 170.043 281.84 170.12 282.494 167.709C282.702 166.942 282.892 165.822 282.918 165.219C282.958 164.261 282.872 163.975 282.229 162.929C281.232 161.307 279.091 158.875 277.197 157.211C275.571 155.783 274.012 154.731 273.815 154.929C273.752 154.992 274.024 155.486 274.419 156.027C275.744 157.841 276.721 160.561 276.721 162.437C276.721 163.557 276.25 165.221 275.761 165.827V165.827C275.537 166.106 275.184 166.246 274.829 166.198L272.71 165.912C270.341 165.592 269.787 165.58 268.069 165.803C266.996 165.943 265.71 166.103 265.211 166.158V166.158C264.671 166.218 264.155 165.92 263.937 165.423L263.836 165.192C262.686 162.565 263.456 158.626 265.672 155.8C267.399 153.597 264.09 155.741 261.229 158.678C259.224 160.737 257.797 162.574 257.25 163.801C256.903 164.581 256.886 164.803 257.094 165.892C257.222 166.563 257.454 167.553 257.61 168.093C257.766 168.634 257.894 169.149 257.894 169.239C257.894 169.788 257.048 169.082 254.808 166.663C249.965 161.434 243.657 155.062 243.324 155.062C243.057 155.062 235.274 159.918 233.102 161.44C232.818 161.639 232.016 162.156 231.318 162.589C230.62 163.023 228.043 164.667 225.59 166.243C223.138 167.819 220.435 169.555 219.583 170.101C218.732 170.647 217.459 171.475 216.755 171.941C215.29 172.909 214.777 173.023 214.967 172.339C215.036 172.093 215.402 169.202 215.78 165.916C216.844 156.685 216.859 156.563 217.657 151.278C218.558 145.305 221.189 133.519 222.414 129.969C222.509 129.695 222.741 128.933 222.931 128.276C224.11 124.192 226.271 118.024 227.921 114.036C229.272 110.771 229.508 110.052 229.23 110.055C229.136 110.056 228.603 110.75 228.046 111.598Z" fill="url(#paint1_linear_927_2752)"/>
</g>
<defs>
<filter id="filter0_d_927_2752" x="155.569" y="94.1055" width="228.779" height="309.943" filterUnits="userSpaceOnUse" color-interpolation-filters="sRGB">
<feFlood flood-opacity="0" result="BackgroundImageFix"/>
<feColorMatrix in="SourceAlpha" type="matrix" values="0 0 0 0 0 0 0 0 0 0 0 0 0 0 0 0 0 0 127 0" result="hardAlpha"/>
<feOffset dy="9.5367"/>
<feGaussianBlur stdDeviation="12.7156"/>
<feComposite in2="hardAlpha" operator="out"/>
<feColorMatrix type="matrix" values="0 0 0 0 0 0 0 0 0 0 0 0 0 0 0 0 0 0 0.7 0"/>
<feBlend mode="normal" in2="BackgroundImageFix" result="effect1_dropShadow_927_2752"/>
<feBlend mode="normal" in="SourceGraphic" in2="effect1_dropShadow_927_2752" result="shape"/>
</filter>
<linearGradient id="paint0_linear_927_2752" x1="168.75" y1="496.815" x2="572.774" y2="201.454" gradientUnits="userSpaceOnUse">
<stop stop-color="#040C1B"/>
<stop offset="1" stop-color="#111929"/>
</linearGradient>
<linearGradient id="paint1_linear_927_2752" x1="270.009" y1="121.921" x2="209.623" y2="279.128" gradientUnits="userSpaceOnUse">
<stop stop-color="#EA1D22"/>
<stop offset="1" stop-color="#640204"/>
</linearGradient>
</defs>
</svg>
